<?xml version="1.0" encoding="UTF-8" standalone="no"?>
<!-- Created with Inkscape (http://www.inkscape.org/) -->

<svg
   xmlns:dc="http://purl.org/dc/elements/1.1/"
   xmlns:cc="http://creativecommons.org/ns#"
   xmlns:rdf="http://www.w3.org/1999/02/22-rdf-syntax-ns#"
   xmlns:svg="http://www.w3.org/2000/svg"
   xmlns="http://www.w3.org/2000/svg"
   xmlns:sodipodi="http://sodipodi.sourceforge.net/DTD/sodipodi-0.dtd"
   xmlns:inkscape="http://www.inkscape.org/namespaces/inkscape"
   version="1.1"
   width="100%"
   height="100%"
   viewBox="0 -200 1000 1000"
   id="svg2"
   inkscape:version="0.48.0 r9654"
   sodipodi:docname="A.svg">
  <sodipodi:namedview
     pagecolor="#ffffff"
     bordercolor="#666666"
     borderopacity="1"
     objecttolerance="10"
     gridtolerance="10"
     guidetolerance="10"
     inkscape:pageopacity="0"
     inkscape:pageshadow="2"
     inkscape:window-width="1328"
     inkscape:window-height="792"
     id="namedview8"
     showgrid="false"
     inkscape:zoom="0.03275"
     inkscape:cx="6909.6532"
     inkscape:cy="-4934.7792"
     inkscape:window-x="31"
     inkscape:window-y="0"
     inkscape:window-maximized="0"
     inkscape:current-layer="text3004"
     showguides="true"
     inkscape:guide-bbox="true"
     inkscape:snap-midpoints="true">
    <inkscape:grid
       type="xygrid"
       id="grid3075"
       empspacing="10"
       visible="true"
       enabled="true"
       snapvisiblegridlinesonly="true" />
  </sodipodi:namedview>
  <metadata
     id="metadata12">
    <rdf:RDF>
      <cc:Work
         rdf:about="">
        <dc:format>image/svg+xml</dc:format>
        <dc:type
           rdf:resource="http://purl.org/dc/dcmitype/StillImage" />
        <dc:title></dc:title>
      </cc:Work>
    </rdf:RDF>
  </metadata>
  <defs
     id="defs10" />
  <g
     transform="matrix(1,0,0,-1,0,800)"
     id="g4">
    <g
       transform="scale(1.0081143,-0.991951)"
       id="text2989"
       style="font-size:1000.96459961px;font-style:normal;font-weight:normal;line-height:125%;letter-spacing:0px;word-spacing:0px;fill:#000000;fill-opacity:1;stroke:none;font-family:Sans" />
  </g>
  <g
     style="font-size:992.90777588px;font-style:normal;font-weight:normal;line-height:125%;letter-spacing:0px;word-spacing:0px;fill:#000000;fill-opacity:1;stroke:none;font-family:Sans"
     id="text3004">
    <path
       style="font-size:medium;font-style:normal;font-variant:normal;font-weight:normal;font-stretch:normal;text-indent:0;text-align:start;text-decoration:none;line-height:125%;letter-spacing:0;word-spacing:0;text-transform:none;direction:ltr;block-progression:tb;writing-mode:lr-tb;text-anchor:start;baseline-shift:baseline;color:#000000;fill:#00ff00;fill-opacity:1;stroke:none;stroke-width:155;marker:none;visibility:visible;display:inline;overflow:visible;enable-background:accumulate;font-family:Sans;-inkscape-font-specification:Sans"
       d="m 174.5938,102.4687 c -21.0947,0 -34.2932,0.031 -34.4376,0.031 l -77.6562,0.031 0,77.4687 0,540 0,76.25 20,0.3125 0,-616.5625 0,-57.4687 58.125,-0.031 c 0.4066,-8e-4 1.0196,0 1.8125,0 l 10.8437,0 0,-0.031 c 5.7477,0 12.3693,0 21.3126,0 63.5415,0.011 198.2357,0.5379 248.9062,3.75 85.4274,5.4154 154.9751,64.6111 174.0625,146.8125 0.012,0.052 0.019,0.1043 0.031,0.1563 l 0.062,0.3125 c 13.2782,57.8212 -1.412,111.5302 -28.875,152.625 l -9.5,14.2187 12.5626,11.5938 c 0.7776,0.7172 1.0554,0.9769 0.8124,0.75 37.4881,35.0367 57.5311,88.8095 56.125,144.4687 -1.7619,69.7791 -47.3008,124.4954 -91.1562,150.0313 -45.9259,26.7414 -89.2892,34.2775 -125.5625,34.125 -45.0783,-0.1895 -224.7084,-3.0358 -259.5625,-3.5938 -9.318,-0.1147 -6.1068,-0.055 -25,-0.375 l 0,-597.3437 0,-12.5 12.5,0 0.7188,0 1.75,0 17.5312,0 0,-0.031 c 4.6847,9e-4 8.4548,0 14.5938,0 63.3085,0.011 200.121,0.744 246.0624,3.6562 66.3586,4.2066 118.4128,48.7587 133.0938,112.2188 l 0.062,0.1875 0,0.031 0.031,0.125 c 1.4311,6.256 2.4379,12.4236 3.0624,18.5 l 20.0938,0 c -0.6772,-7.588 -1.895,-15.288 -3.6875,-23.0938 l -0.062,-0.25 C 556.6538,207.1094 496.6685,155.8956 421.9052,151.1562 373.7667,148.1047 174.5926,147.4687 174.5928,147.4687 l -67.0928,0.031 0,32.5 0,616.9062 c 0,0 -1.0757,0.01 -1.9375,0 1.9375,0.05 9.3707,0.21 33.1875,0.5938 0,0 222.7575,3.6003 273.2188,3.8125 39.1709,0.1646 86.4387,-8.1494 135.7187,-36.8438 49.28,-28.6945 99.1237,-88.7835 101.0937,-166.8125 1.5344,-60.7497 -20.1821,-120.0722 -62.4687,-159.5937 -0.2977,-0.2783 -0.6067,-0.5364 -0.9063,-0.8125 30.1361,-45.0952 46.3601,-104.5984 31.75,-168.2188 l -0.062,-0.3437 C 596.1052,177.9658 518.8063,112.2121 424.75,106.2497 372.054,102.9093 238.2209,102.4792 174.5938,102.4684 z m -22.0938,90.0625 0,20.125 0,45.25 0,121.6875 0,199.5938 0,64.5 0,108.7812 c 0,0 -5.9738,0.1492 20.2812,0.5625 0.2269,-16.3089 -0.1327,-29.2622 0,-44.8437 l 43.7188,0.5 c 70.2453,1.0848 164.0671,2.4914 195.8438,2.625 16.2402,0.068 27.1783,-2.5994 40.5937,-5.8438 14.0936,-3.4082 31.3334,-8.2214 49.4687,-18.7812 8.0542,-4.6896 24.4929,-12.9145 38.1876,-31.5938 12.3287,-16.8165 16.4781,-35.4529 17.75,-51.1875 l -20.0626,0 c -1.26,12.9451 -4.8755,27.1843 -13.8124,39.375 -11.088,15.1239 -22.906,20.7572 -32.125,26.125 -15.7013,9.1425 -30.5577,13.3516 -44.0938,16.625 -13.5361,3.2735 -21.5345,5.3413 -35.8125,5.2813 -31.3455,-0.1318 -125.388,-1.5403 -195.625,-2.625 L 172.5,688 l 0,-44.3125 0,-64.5 0,-44.5938 0,-155 0,-121.6875 0,-45.25 45.25,0.25 c 71.2928,0.3714 164.2461,0.8566 200.0312,3.125 25.257,1.6011 43.1147,12.5422 58.2188,25.375 15.1041,12.833 28.2958,27.6759 33.9375,52.0625 9.6627,41.7701 -9.54,80.7455 -32.2187,101.9063 l -0.25,0.25 -0.25,0.25 c -0.1055,0.098 -0.2077,0.153 -0.3126,0.25 l -0.25,0.2187 -0.25,0.2188 c -5.5153,5.1408 -9.9455,9.2605 -16.625,13.625 -7.1219,4.6538 -15.5585,7.6675 -19.5937,8.9375 -16.4939,5.1908 -34.6124,6.8357 -68.6875,6.4687 -2.6545,0.039 0.043,-0.021 -2.7188,0 -57.8127,-0.2813 -105.4288,-0.5864 -151.6874,-1 l -19.3126,-0.1875 0,20 19.125,0.1875 c 46.8487,0.419 94.9506,0.7155 153.7188,1 0.1434,7e-4 0.2315,-5e-4 0.375,0 l 0.031,0 c 0.026,2e-4 0.068,0 0.094,0 0.017,10e-5 0.033,0 0.062,0 -0.021,6e-4 0.1352,0 0.094,0 0.081,9e-4 0.1385,-8e-4 0.2188,0 0.023,3e-4 0.042,-2e-4 0.062,0 0.057,6e-4 0.099,-5e-4 0.1563,0 0,0 0.03,10e-5 0.031,0 34.4846,0.3526 55.1928,-1.3497 74.4375,-7.4062 5.0631,-1.5935 14.6645,-4.8026 24.5313,-11.25 7.8905,-5.1562 13.4604,-10.297 18.8437,-15.3125 -0.2309,0.2228 -0.032,0.051 0.5,-0.4375 0.041,-0.038 0.079,-0.052 0.125,-0.094 0.051,-0.048 0.037,-0.041 0.094,-0.094 0.2413,-0.2227 0.2142,-0.1759 0.5626,-0.5 l 0.2812,-0.2188 0.25,-0.25 0,-0.031 0.25,-0.2187 0.25,-0.25 -0.031,-0.031 c 27.2911,-25.7537 49.1151,-70.7265 37.5937,-120.5313 -6.7831,-29.3203 -23.9758,-48.7729 -40.5,-62.8125 -16.7573,-14.2375 -39.5016,-28.1663 -69.9063,-30.0937 -37.7829,-2.395 -129.8673,-2.7849 -201.1562,-3.1563 l -0.031,0 -45.2188,-0.25 z m 45,45.2813 0,20.0937 0,121.6875 0,19.8125 19.8125,0.1875 c 46.8771,0.4191 94.9745,0.715 153.9063,1 0.2245,0 0.2427,3e-4 0.2812,0 0.047,5e-4 0.078,-5e-4 0.125,0 32.7502,0.357 49.8308,-1.809 61.0625,-5.3437 3.7329,-1.1748 8.7098,-2.9312 13.4063,-6 4.5532,-2.9755 8.3408,-6.4107 13.8437,-11.5313 l 0.031,0.031 0.25,-0.2187 0.1874,-0.2188 0.031,0 0.25,-0.2187 c 18.1736,-16.9572 32.475,-45.2481 24.9063,-77.9688 -3.7198,-16.0792 -13.7425,-28.4276 -25.7813,-38.6562 -12.0388,-10.2287 -26.4651,-18.4142 -43.5937,-19.5 -29.2423,-1.8537 -106.5683,-2.5162 -173.5626,-2.9063 l 0,20 c 67.1366,0.4086 145.1029,1.1522 172.2813,2.875 21.2549,1.3474 46.7912,23.8211 51.1563,42.6875 5.8945,25.4812 -4.493,45.2495 -19.0626,58.8438 l -0.25,0.2187 c -11.1584,10.3961 -13.1116,11.3026 -20.0937,13.5 -7.0103,2.2062 -23.2761,4.7582 -54.9687,4.4063 -0.1343,-7e-4 -0.272,6e-4 -0.4063,0 -58.9172,-0.2849 -106.9734,-0.5812 -153.8125,-1 l 0,-121.6875 c 0.049,3e-4 0.1071,-3e-4 0.1562,0 l 0,-20 c -0.02,-1e-4 -0.043,1e-4 -0.062,0 z m 359.8125,89.375 c -1.9277,27.5254 -11.6501,52.5578 -25.9375,73.9375 l 0,0.031 c -20.5121,29.7126 -37.8241,40.7773 -56.453,51.1029 -21.8276,12.0986 -51.9894,18.2762 -105.1408,18.3033 -58.4723,-0.2843 -151.6874,-0.9687 -151.6874,-0.9687 l -20.3126,-0.094 0,19.9687 20.125,0.125 c 46.4517,0.3366 93.2997,0.6843 151.7813,0.9688 l 44.7813,0.2187 0,0.062 c 4.0841,0.02 9.7069,0.062 13,0.062 37.4057,0.023 65.9159,10.8619 83.7187,27.5 6.7389,6.2986 16.2166,17.7612 21.375,31.5938 3.4294,9.1961 5.2278,18.7252 5.9375,28.9062 l 20.0312,0 c -0.7505,-12.1514 -2.8517,-24.0697 -7.1874,-35.75 l -0.031,-0.1562 c -6.6969,-17.9581 -17.7206,-31.0423 -26.4687,-39.2188 -13.6261,-12.7343 -33.116,-22.7785 -52.8323,-27.1989 13.6295,-5.846 24.5184,-11.5018 38.1472,-19.9152 10.2372,9.27 22.4906,20.34 31.1849,28.3641 l 0,0.031 c 0.4763,0.4395 0.7264,0.6356 1.0312,0.9063 26.2596,24.8266 42.5151,66.1832 41.4062,110.0625 -1.2811,50.7394 -37.4516,94.0203 -68.8124,112.2812 -38.4639,22.3965 -72.8106,28.1258 -102.7188,28 -24.0719,-0.1012 -92.4038,-1.0415 -154.4375,-1.9687 -22.638,-0.3383 -41.4382,-0.643 -60.0313,-0.9375 l 0,20 c 69.5854,1.0813 181.0676,2.7662 214.375,2.9062 32.6514,0.1373 71.142,-6.4186 112.875,-30.7187 37.0749,-21.5877 77.2486,-69.5957 78.75,-129.0625 1.2382,-49.0185 -16.4959,-95.634 -47.6562,-125.0938 -0.1147,-0.097 -0.5307,-0.4594 -1.2188,-1.0937 L 525.194,443.0555 c 28.9638,-31.7076 49.8095,-74.2488 52.1188,-115.8697 z M 197.5,514.5937 l 0,39.8125 0,89.2813 0,19.6875 20.0938,0.3125 c -0.091,-42.8259 0.026,-90.5394 0.094,-128.8438 0,0 124.9062,0.8475 153.5625,0.75 18.5899,0.089 41.5882,0.304 56.1875,0.3125 29.4202,0.018 44.9888,7.8588 53.0313,15.375 8.042,7.5164 13.9908,16.8132 13.3437,42.4375 -0.5662,22.4227 -6.4221,26.5046 -24.125,36.8125 -17.7029,10.3081 -48.6752,15.8166 -57.0625,15.7813 -25.9136,-0.109 -134.3339,-1.716 -169.9688,-2.25 l 0,20 c 66.0763,1.0082 142.6,2.1353 169.875,2.25 8.6756,0.037 17.7142,-1.6292 29.8438,-4.5625 12.1296,-2.9333 25.4793,-7.0108 37.375,-13.9375 9.0148,-5.2491 17.5526,-9.7509 24.5625,-19.3125 7.0099,-9.5616 9.1738,-21.3612 9.5,-34.2813 0.3641,-14.4194 -1.0551,-25.7595 -4.6875,-35.5 -3.6324,-9.7405 -9.7711,-17.1753 -15,-22.0625 -12.3803,-11.5704 -33.7181,-20.7297 -66.6875,-20.75 -9.7574,-0.01 -24.3452,-0.1269 -37.9687,-0.2187 l 0,-0.031 -19.9063,-0.094 c -50.6253,-0.2628 -101.2505,-0.5987 -151.875,-0.9688 z"
       id="path3232"
       inkscape:connector-curvature="0"
       sodipodi:nodetypes="ccccccccccscccsccccccccssccccccccccsccccccccsccccccsscccccsccccccccccccccccccssscccccccccsscccccccccccccccccccccccccccccccccccccccssccccccccccccsccccccccssccscccscccccccccccsccccccccccscccccccccccsssccsscccccccccccccccssscccsssssccccccc"
       inkscape:export-filename="/Users/lgarron/Documents/Graphics/Fonts/Inception/GBexp/diff.png"
       inkscape:export-xdpi="90"
       inkscape:export-ydpi="90" />
  </g>
</svg>
