<?xml version="1.0" encoding="UTF-8" standalone="no"?>
<!-- Created with Inkscape (http://www.inkscape.org/) -->

<svg
   xmlns:dc="http://purl.org/dc/elements/1.1/"
   xmlns:cc="http://creativecommons.org/ns#"
   xmlns:rdf="http://www.w3.org/1999/02/22-rdf-syntax-ns#"
   xmlns:svg="http://www.w3.org/2000/svg"
   xmlns="http://www.w3.org/2000/svg"
   xmlns:sodipodi="http://sodipodi.sourceforge.net/DTD/sodipodi-0.dtd"
   xmlns:inkscape="http://www.inkscape.org/namespaces/inkscape"
   version="1.1"
   width="100%"
   height="100%"
   viewBox="0 -200 1000 1000"
   id="svg2"
   inkscape:version="0.48.0 r9654"
   sodipodi:docname="D.svg">
  <sodipodi:namedview
     pagecolor="#ffffff"
     bordercolor="#666666"
     borderopacity="1"
     objecttolerance="10"
     gridtolerance="10"
     guidetolerance="10"
     inkscape:pageopacity="0"
     inkscape:pageshadow="2"
     inkscape:window-width="1328"
     inkscape:window-height="792"
     id="namedview8"
     showgrid="false"
     inkscape:zoom="0.03275"
     inkscape:cx="6909.6532"
     inkscape:cy="-4934.7792"
     inkscape:window-x="31"
     inkscape:window-y="0"
     inkscape:window-maximized="0"
     inkscape:current-layer="svg2"
     showguides="true"
     inkscape:guide-bbox="true"
     inkscape:snap-midpoints="true">
    <inkscape:grid
       type="xygrid"
       id="grid3075"
       empspacing="10"
       visible="true"
       enabled="true"
       snapvisiblegridlinesonly="true" />
  </sodipodi:namedview>
  <metadata
     id="metadata12">
    <rdf:RDF>
      <cc:Work
         rdf:about="">
        <dc:format>image/svg+xml</dc:format>
        <dc:type
           rdf:resource="http://purl.org/dc/dcmitype/StillImage" />
        <dc:title></dc:title>
      </cc:Work>
    </rdf:RDF>
  </metadata>
  <defs
     id="defs10" />
  <path
     inkscape:export-ydpi="90"
     inkscape:export-xdpi="90"
     inkscape:export-filename="/Users/lgarron/Documents/Graphics/Fonts/Inception/GBexp/diff.png"
     sodipodi:nodetypes="csccscccccsccccssccsssccscccssssccccsssscccccccssccsccsccccsccccsscccsccccccc"
     inkscape:connector-curvature="0"
     id="path3381"
     d="M 394.4688,90.9375 C 323.7113,90.6167 245.9761,112.1644 173.6562,166.7812 81.6012,236.3028 41.4662,342.8816 40.8438,443.5 l 20,0 c 0.6054,-95.2722 38.4667,-195.4931 124.875,-260.75 68.8385,-51.9876 142.0255,-72.1146 208.6562,-71.8125 2.1825,0.011 4.297,0.043 6.4062,0.094 31.0574,0.7602 60.57,5.9591 87.2188,14.5 83.573,27.0465 135.8864,69.2508 180.7188,131.4375 L 685,246.5625 C 648.9911,190.2222 585.2102,135.7028 494.0938,106.5 465.6195,97.3741 434.2645,91.8385 401.2812,91.0312 c -2.2672,-0.055 -4.53,-0.083 -6.8124,-0.094 z m -0.2188,45 c -61.4724,-0.2787 -128.9819,18.0488 -193.4688,66.75 -82.883,62.5951 -117.4168,160.5433 -114.8437,252.6562 2.6069,93.3318 39.5308,182.304 108,238.8125 59.0911,48.7687 126.5959,72.098 192.5625,74.3438 l 0,-19.875 C 325.0688,746.3777 262.1092,724.4847 206.6562,678.7187 143.4135,626.5233 108.4071,543.1989 105.9375,454.7812 c -2.4226,-86.7243 29.8977,-177.9668 106.9063,-236.125 61.0554,-46.1099 123.8818,-62.9791 181.3124,-62.7187 1.8817,0.01 3.7005,0.049 5.5313,0.094 26.7268,0.6543 52.0727,5.1256 74.5937,12.3437 59.8931,19.2305 112.9428,54.6452 144.2481,96.9729 l -62.7168,40.0584 c 0,0 -17.247,-16.8316 -29.3437,-26.25 C 506.2643,263.4257 480.6132,247.4295 451.875,238.219 397.1293,220.6729 331.8861,220.6015 257,277.1565 c -55.9129,42.2262 -79.7074,107.7286 -77.8125,175.5625 1.9202,68.7413 31.6263,134.425 74.125,169.5 109.0748,90.0209 244.7861,59.7339 310.875,-26.6563 l 0.25,0.1563 10.3437,-17.0938 -16.25,-10 c -54.5841,88.7862 -185.0391,126.8451 -292.5,38.1563 -36.0635,-29.7638 -65.0847,-91.6559 -66.8437,-154.625 -1.759,-62.969 19.6197,-121.0777 69.875,-159.0313 70.8037,-53.472 125.6598,-52.2393 176.7187,-35.875 51.0592,16.3644 96.0512,59.2407 105.8438,74.5625 l 95.9375,-61.3125 C 604.8327,207.1085 542.1279,168.5985 480.375,149.344 c -24.3672,-7.8097 -51.5374,-12.6112 -80.1875,-13.3125 -1.9118,-0.047 -3.8798,-0.084 -5.9375,-0.094 z m -13.4375,48.125 c -47.3869,2.1021 -99.4328,18.2903 -150.9375,57.1875 -68.8442,51.992 -97.8665,133.5994 -95.6562,212.7187 2.261,80.958 34.4175,156.7345 90.4374,202.9688 118.8211,99.5223 291.9763,79.3074 377.3126,-38.125 L 665.25,657.7187 C 561.6041,803.9739 339.284,846.5472 178,713.4375 106.2019,654.1816 67.09,563.4814 61.5,468.5 l -20.0312,0 c 5.615,100.1638 46.7571,196.78 123.8124,260.375 176.1901,145.4119 423.5879,92.6436 528.0938,-77.3438 L 596.0938,591.7187 C 517.1245,721.4136 340.8626,732.1227 237.375,641.5 186.8322,599.7862 156.3403,529.3628 154.2188,453.4062 c -2.065,-73.9148 24.7338,-148.6205 87.7187,-196.1875 48.1794,-36.3858 95.708,-51.3644 138.875,-53.375 z m 25,0.1875 0,19.8437 c 19.1283,1.2918 37.1626,5.0063 53.7187,10.3125 32.7495,10.4961 60.3895,27.9555 82.2813,45 6.432,5.0079 12.0644,9.6617 17.3125,14.2188 l 16.0229,-10.0854 C 559.6724,247.28 563.9235,251.3108 554.0938,243.625 530.9868,225.6344 501.398,206.8403 465.625,195.375 447.2804,189.4956 427.1596,185.5022 405.8125,184.25 z m 205.197,469.4761 C 564.0443,708.7428 486.7437,745.8174 411.5,748.4375 l 0,19.9375 c 83.8697,-3.8923 163.1297,-41.5877 216.8438,-104 z"
     style="font-size:medium;font-style:normal;font-variant:normal;font-weight:normal;font-stretch:normal;text-indent:0;text-align:start;text-decoration:none;line-height:125%;letter-spacing:0;word-spacing:0;text-transform:none;direction:ltr;block-progression:tb;writing-mode:lr-tb;text-anchor:start;baseline-shift:baseline;color:#000000;fill:#00ff00;fill-opacity:1;stroke:none;stroke-width:155;marker:none;visibility:visible;display:inline;overflow:visible;enable-background:accumulate;font-family:Sans;-inkscape-font-specification:Sans" />
</svg>
