<?xml version="1.0" encoding="UTF-8" standalone="no"?>
<!-- Created with Inkscape (http://www.inkscape.org/) -->

<svg
   xmlns:dc="http://purl.org/dc/elements/1.1/"
   xmlns:cc="http://creativecommons.org/ns#"
   xmlns:rdf="http://www.w3.org/1999/02/22-rdf-syntax-ns#"
   xmlns:svg="http://www.w3.org/2000/svg"
   xmlns="http://www.w3.org/2000/svg"
   xmlns:sodipodi="http://sodipodi.sourceforge.net/DTD/sodipodi-0.dtd"
   xmlns:inkscape="http://www.inkscape.org/namespaces/inkscape"
   version="1.1"
   width="100%"
   height="100%"
   viewBox="0 -200 1000 1000"
   id="svg2"
   inkscape:version="0.48.0 r9654"
   sodipodi:docname="F.svg">
  <sodipodi:namedview
     pagecolor="#ffffff"
     bordercolor="#666666"
     borderopacity="1"
     objecttolerance="10"
     gridtolerance="10"
     guidetolerance="10"
     inkscape:pageopacity="0"
     inkscape:pageshadow="2"
     inkscape:window-width="1328"
     inkscape:window-height="792"
     id="namedview8"
     showgrid="false"
     inkscape:zoom="0.03275"
     inkscape:cx="6909.6532"
     inkscape:cy="-4934.7792"
     inkscape:window-x="31"
     inkscape:window-y="0"
     inkscape:window-maximized="0"
     inkscape:current-layer="svg2"
     showguides="true"
     inkscape:guide-bbox="true"
     inkscape:snap-midpoints="true">
    <inkscape:grid
       type="xygrid"
       id="grid3075"
       empspacing="10"
       visible="true"
       enabled="true"
       snapvisiblegridlinesonly="true" />
  </sodipodi:namedview>
  <metadata
     id="metadata12">
    <rdf:RDF>
      <cc:Work
         rdf:about="">
        <dc:format>image/svg+xml</dc:format>
        <dc:type
           rdf:resource="http://purl.org/dc/dcmitype/StillImage" />
        <dc:title></dc:title>
      </cc:Work>
    </rdf:RDF>
  </metadata>
  <defs
     id="defs10" />
  <path
     inkscape:export-ydpi="90"
     inkscape:export-xdpi="90"
     inkscape:export-filename="/Users/lgarron/Documents/Graphics/Fonts/Inception/GBexp/diff.png"
     sodipodi:nodetypes="ccsccscccsccssssccccccccccccccccccccsssccsccssssccssscccsccsccsccsccsscscccccccccccccccccccccccccsccscccccccccccccccsssscccscccccccccccccccccccsccccccccccccccccccc"
     inkscape:connector-curvature="0"
     id="path4104"
     d="m 403.5625,90.625 c -2.0111,0.011 -4.0393,0.05 -6.0625,0.094 -71.2183,1.5489 -149.8534,23.9963 -223.8438,79.875 C 84.9483,237.5869 44.4482,338.9902 41.0625,436.3127 l 20,0 c 3.3496,-91.9244 41.5652,-186.9988 124.6563,-249.75 70.6074,-53.3239 144.88,-74.3791 212.2187,-75.8437 1.9787,-0.043 3.9017,-0.084 5.7187,-0.094 0.011,-1e-4 0.021,1e-4 0.031,0 28.5106,-0.1492 55.7007,3.2182 80.5625,9.1875 74.4667,17.8791 131.2054,54.2829 167.5,83.5625 l -78.625,88.8438 c -26.5426,-20.3071 -68.274,-45.7574 -116.5312,-57.3438 -57.3389,-13.7668 -123.8771,-11.0886 -199.5938,46.0938 -55.9129,42.2257 -79.7074,107.7283 -77.8125,175.5624 1.9202,68.7415 31.6264,134.4251 74.125,169.5 30.3497,25.0484 79.3213,40.0436 135.4375,43.875 56.1162,3.832 119.2873,-4.5471 175,-33.25 l 10.8125,-5.5624 0.031,-12.1563 c 0.052,-18.2907 0.2181,-39.2709 0.3437,-61.375 l 0,-0.031 c 0.023,-4.2296 0.039,-4.0139 0.062,-8.25 l 0.125,-20.125 -20.125,0 -139.9688,0 0,-118.3124 299.3438,0 c 0,0 -0.1449,16.2286 0.1875,-20 l -79.8437,0 -239.6876,0 0,158.3124 159.9688,0 c -0.026,4.1913 -0.04,4.0077 -0.062,8.2813 -0.1254,22.0761 -0.291,43.0703 -0.3437,61.4375 -103.1839,53.1588 -239.2108,32.4487 -288.5626,-8.2812 -36.0635,-29.7645 -65.0847,-91.6567 -66.8437,-154.625 -1.759,-62.9697 19.6197,-121.0778 69.875,-159.0313 71.7672,-54.1996 128.9707,-55.5672 182.875,-42.625 53.9043,12.9422 102.338,46.7983 123.4687,65.5 L 680.3119,201.2815 C 644.1911,169.3143 579.0857,122.027 488.9056,100.3753 462.4864,94.032 433.7284,90.4647 403.5619,90.6253 z m 0.25,45 c -1.5948,0.01 -3.3962,0.051 -5.3437,0.094 -62.4895,1.3586 -131.308,20.6506 -197.6876,70.7812 -82.8828,62.5945 -117.4168,160.5436 -114.8437,252.6562 2.6069,93.3327 39.5307,182.3038 108,238.8126 53.7634,44.3714 127.8798,70.2024 207.25,72.2812 l 0,-20.375 C 326.061,747.791 256.3089,723.5106 206.6562,682.5314 143.4135,630.3361 108.4071,547.0119 105.9375,458.594 c -2.4226,-86.7245 29.8981,-177.9677 106.9063,-236.125 63.0432,-47.6117 127.3674,-65.474 186.0624,-66.75 1.9612,-0.042 3.6806,-0.086 5,-0.094 0.011,-1e-4 0.021,1e-4 0.031,0 24.8089,-0.1295 48.4441,2.8069 69.8125,7.9375 44.1876,10.6092 81.39,28.75 111.125,47.5 l -19.0938,21.5937 c -26.9498,-16.4568 -60.2133,-32.2936 -98.6874,-41.5312 -17.1103,-4.1081 -35.5377,-6.7655 -54.9063,-7.375 l 0,19.8438 c 17.6692,0.6573 34.5088,3.1893 50.25,6.9687 42.8374,10.2851 79.3458,29.4946 107,48.125 l 45.625,-51.5625 c -33.6929,-23.893 -79.6614,-49.3158 -136.6563,-63 -22.9349,-5.5068 -48.1269,-8.6409 -74.5937,-8.5 z m -16.625,48.5 c -49.2583,3.0764 -103.3827,20.209 -157.3125,60.9375 -68.844,51.992 -97.8665,133.5989 -95.6562,212.7187 2.2614,80.9579 34.4181,156.7343 90.4374,202.9688 42.1222,34.7636 98.6887,52.5045 161.0313,56.7614 62.8593,4.292 133.8215,-7.4372 198.6875,-40.8552 l 24.3125,-12.5312 10.8125,-5.5625 0.031,-12.1875 0.063,-27.3125 0,-0.031 c 0.052,-18.1105 0.2178,-39.0627 0.3437,-61.2187 l 0,-0.031 c 0.022,-4.125 0.038,-3.8777 0.062,-8.2187 l 0.2812,-45.2813 0.125,-20.1248 -20.125,-2e-4 -45.2812,0 -94.9688,0 0,-28.3124 233.9347,0 -0.7156,102.375 c 0,0 -0.1431,47.609 -0.1253,67.0624 0.01,9.7274 0.012,18.0803 0.031,24.0938 0.01,3.0068 0.022,5.4309 0.031,7.1562 0.01,1.726 -0.046,0.822 0.062,3.5313 l 0,0.031 1.25,31.25 -25.1875,18.625 -0.031,0 C 508.5919,828.7925 299.0655,817.167 178,717.25 103.4362,655.7114 64.154,560.2531 61.0312,461.3125 l -20.0312,0 c 3.1291,104.053 44.4097,205.4557 124.2812,271.375 129.1099,106.5562 348.0755,117.4772 515.9063,-6.625 l 33.7187,-24.9063 -1.6874,-41.875 c -0.052,-1.3043 -0.2246,-55.7561 0.031,-100.9374 0.2566,-45.1821 0.625,-87.6563 0.625,-87.6563 l 0.2812,-34.8437 -274.125,0 0,68.3124 114.9688,0 45.2812,0 -0.2812,45.2813 c -0.026,4.2919 -0.04,4.0746 -0.062,8.25 -0.1258,22.1391 -0.2919,43.1174 -0.3437,61.3125 l -0.063,27.3438 -24.3124,12.5312 c -60.8642,31.3561 -128.2369,42.7589 -188.1563,38.6677 -59.9194,-4.0915 -112.2454,-21.329 -149.6875,-52.2302 -50.5425,-41.714 -81.0347,-112.1377 -83.1562,-188.0937 -2.065,-73.9158 24.7339,-148.6205 87.7187,-196.1876 50.5377,-38.1665 100.1072,-54.1356 145.25,-57.0937 z m 261.5937,300.032 c -0.1086,13.1559 -0.331,38.5587 -0.5312,73.8118 -0.1294,22.825 -0.1428,47.8588 -0.125,67.375 0.01,9.7364 0.012,18.0966 0.031,24.1874 0.01,2.2353 0.024,3.7614 0.031,5.3126 0.011,-0.099 0.136,-0.4403 0.1563,-0.5626 -0.012,0.3163 -0.07,0.7636 -0.094,1 -0.3815,3.724 -0.1139,2.7325 -0.094,3.4376 0.015,0.5281 0.058,1.4142 0.094,2.3437 l 0,0.031 0,0.4062 0.031,0.3438 0,0.031 0.2813,7.4375 -6.0313,4.4687 C 575.5764,723.29 499.148,746.9603 426.1866,749.7183 l 0,20.375 c 77.1226,-2.8196 157.6596,-28.0208 228.25,-80.2188 l 14.5313,-10.75 -0.7188,-18.0312 0,-0.031 c -0.2344,-5.892 -0.052,-2.6511 -0.062,-4.4063 -0.01,-1.7545 -0.021,-4.1689 -0.031,-7.1874 -0.01,-3.0154 0,-8.0027 0,-12.0626 -0.289,0.018 -0.5523,0.043 -0.9062,0.063 0.3387,-0.033 0.6148,-0.057 0.875,-0.094 l 0,-12.0625 c -0.018,-19.4909 0,-44.4682 0.125,-67.2187 0.2008,-35.3565 0.4233,-60.8855 0.5312,-73.9368 z M 664.25,637.75 c -0.6561,0.2442 -2.4428,0.9404 -4.2812,1.625 1.7038,-0.7563 3.4066,-1.5314 3.4062,-1.5312 -10e-5,0 0.7016,-0.069 0.875,-0.094 z m -6.9375,2.7812 c -0.2192,0.1694 -0.6537,0.5235 -1.2813,1.0313 0.249,-0.2083 0.9376,-0.8751 0.9376,-0.875 -3e-4,0 0.3085,-0.1406 0.3437,-0.1563 z"
     style="font-size:medium;font-style:normal;font-variant:normal;font-weight:normal;font-stretch:normal;text-indent:0;text-align:start;text-decoration:none;line-height:125%;letter-spacing:0;word-spacing:0;text-transform:none;direction:ltr;block-progression:tb;writing-mode:lr-tb;text-anchor:start;baseline-shift:baseline;color:#000000;fill:#00ff00;fill-opacity:1;stroke:none;stroke-width:155;marker:none;visibility:visible;display:inline;overflow:visible;enable-background:accumulate;font-family:Sans;-inkscape-font-specification:Sans" />
</svg>
