<?xml version="1.0" encoding="UTF-8" standalone="no"?>
<!-- Created with Inkscape (http://www.inkscape.org/) -->

<svg
   xmlns:dc="http://purl.org/dc/elements/1.1/"
   xmlns:cc="http://creativecommons.org/ns#"
   xmlns:rdf="http://www.w3.org/1999/02/22-rdf-syntax-ns#"
   xmlns:svg="http://www.w3.org/2000/svg"
   xmlns="http://www.w3.org/2000/svg"
   xmlns:sodipodi="http://sodipodi.sourceforge.net/DTD/sodipodi-0.dtd"
   xmlns:inkscape="http://www.inkscape.org/namespaces/inkscape"
   version="1.1"
   width="100%"
   height="100%"
   viewBox="0 -200 1000 1000"
   id="svg2"
   inkscape:version="0.48.0 r9654"
   sodipodi:docname="O.svg">
  <sodipodi:namedview
     pagecolor="#ffffff"
     bordercolor="#666666"
     borderopacity="1"
     objecttolerance="10"
     gridtolerance="10"
     guidetolerance="10"
     inkscape:pageopacity="0"
     inkscape:pageshadow="2"
     inkscape:window-width="1328"
     inkscape:window-height="792"
     id="namedview8"
     showgrid="false"
     inkscape:zoom="0.03275"
     inkscape:cx="6909.6532"
     inkscape:cy="-4934.7792"
     inkscape:window-x="31"
     inkscape:window-y="0"
     inkscape:window-maximized="0"
     inkscape:current-layer="svg2"
     showguides="true"
     inkscape:guide-bbox="true"
     inkscape:snap-midpoints="true">
    <inkscape:grid
       type="xygrid"
       id="grid3075"
       empspacing="10"
       visible="true"
       enabled="true"
       snapvisiblegridlinesonly="true" />
  </sodipodi:namedview>
  <metadata
     id="metadata12">
    <rdf:RDF>
      <cc:Work
         rdf:about="">
        <dc:format>image/svg+xml</dc:format>
        <dc:type
           rdf:resource="http://purl.org/dc/dcmitype/StillImage" />
        <dc:title></dc:title>
      </cc:Work>
    </rdf:RDF>
  </metadata>
  <defs
     id="defs10" />
  <path
     inkscape:export-ydpi="90"
     inkscape:export-xdpi="90"
     inkscape:export-filename="/Users/lgarron/Documents/Graphics/Fonts/Inception/GBexp/diff.png"
     sodipodi:nodetypes="cccccsssccccccssccccccccsscccccsssscccccccsscsscccccscccccccccccccccsscssccscccscscc"
     inkscape:connector-curvature="0"
     id="path4102"
     d="m 57.0312,106.0938 0,693.9062 19.875,0 0.125,-673.9062 c 0,0 187.1875,0 280.7813,0 52.3787,-4e-4 113.0795,6.9971 167.9375,42.4687 53.1233,34.3505 94.3919,104.4125 93.7812,191 -0.6093,86.4897 -54.1815,152.669 -108.9687,183.3125 -56.7816,31.7585 -113.7681,39.1548 -157.2813,37.875 -58.2166,-1.094 -161.25,-0.4375 -161.25,-0.4375 0,0 0,133.125 0,199.6875 l -70,0 0,-608.9062 c 0,0 157.1875,0 235.7813,0 48.3642,-4e-4 99.0505,6.5285 143.4687,35.25 38.588,24.951 73.7587,80.8007 73.25,152.9062 -0.4794,68.0389 -44.3438,121.0794 -85.9374,144.3438 -48.186,26.9506 -96.7359,33.2836 -134,32.1874 -74.0903,-1.398 -207.5626,-0.1562 -207.5626,-0.1562 0,0 0,146.25 0,219.375 0,0 -9.5791,0 20,0 0,-66.5 0,-199.5 0,-199.5 0,0 125.9227,-1.4026 186.9688,0.2812 40.0395,1.1778 92.3333,-5.6288 144.3438,-34.7187 47.5226,-26.5805 95.6494,-85.2877 96.1874,-161.6563 0.5543,-78.5859 -37.2088,-140.6385 -82.375,-169.8437 -49.0684,-31.7283 -104.1875,-38.469 -154.3437,-38.4687 -85.2604,0 -255.7813,0 -255.7813,0 L 102.031,800 c 0,0 63.7763,0 110.0002,0 l 0,-199.8125 c 0,0 106.0223,-0.4561 140.6563,0.5625 46.292,1.3615 107.0264,-6.5129 167.625,-40.4062 60.5986,-33.8941 118.5522,-106.0384 119.2187,-200.625 0.6559,-92.9883 -43.4484,-169.4708 -102.9374,-207.9376 -59.4895,-38.4663 -124.6247,-45.6877 -178.7813,-45.6874 -100.2604,0 -300.7813,0 -300.7813,0 z m 90,90 0,314.4687 65.4376,-0.4375 0.031,0 c 0,0 105.4629,-0.443 142.8438,0.6562 33.8405,0.9955 77.7278,-4.7662 121,-28.9687 14.7685,-8.2603 35.7015,-20.2216 51.6562,-43.4687 16.2912,-23.7374 21.3372,-51.6835 21.5312,-79.25 0.2197,-31.1549 -2.8369,-58.1408 -15.375,-82.9376 -13.0334,-25.777 -33.8558,-40.6658 -46.4062,-48.7812 -39.3252,-25.4281 -84.7513,-31.2812 -129.9375,-31.2812 -55.2604,0 -165.7813,0 -165.7813,0 l 0,20 c 0,0 110.5209,0 165.7813,0 43.4325,0 84.4979,5.7126 119.0625,28.0624 11.4897,7.4296 28.9304,20.2506 39.4375,41.0313 10.5071,20.7807 13.4288,43.9767 13.2187,73.75 -0.1772,25.1924 -4.8306,48.8597 -18.0312,68.0937 -13.2006,19.2347 -30.3476,29.1694 -44.9062,37.3126 -39.4105,22.0425 -79.5985,27.351 -110.6563,26.4374 -38.0148,-1.1176 -143.5937,-0.6562 -143.5937,-0.6562 l -45.3126,0.3125 0,-294.3437 z m 45,45 0,20 0,184.0312 0,20.1562 20.1563,-0.1562 -0.1563,-20 0,-184.0312 145.7813,0 c 37.0608,0 74.5631,7.8714 94.625,20.8437 20.0619,12.9723 32.4632,24.2858 32.0937,76.6875 -0.287,40.767 -13.4341,51.6313 -39.9062,66.4375 -26.4721,14.8062 -68.7815,21.2969 -87.375,20.75 C 324.5181,444.8498 237.4375,445 237.4375,445 l 0,20 c 0,0 86.9688,-0.136 119.2187,0.8125 24.1335,0.7098 65.4963,-5.2587 97.7188,-23.2813 13.8239,-7.7316 26.9488,-15.7082 36.5,-29.625 9.5512,-13.9164 13.4976,-31.6041 13.6562,-54.125 0.196,-27.788 -2.7715,-46.9655 -10.5312,-62.3124 -7.7597,-15.3471 -20.0082,-24.407 -30.6875,-31.3126 -26.5075,-17.1399 -65.6073,-24.0626 -105.5,-24.0624 l -145.7813,0 z"
     style="font-size:medium;font-style:normal;font-variant:normal;font-weight:normal;font-stretch:normal;text-indent:0;text-align:start;text-decoration:none;line-height:125%;letter-spacing:0;word-spacing:0;text-transform:none;direction:ltr;block-progression:tb;writing-mode:lr-tb;text-anchor:start;baseline-shift:baseline;color:#000000;fill:#00ff00;fill-opacity:1;stroke:none;stroke-width:155;marker:none;visibility:visible;display:inline;overflow:visible;enable-background:accumulate;font-family:Sans;-inkscape-font-specification:Sans" />
</svg>
