<?xml version="1.0" encoding="UTF-8" standalone="no"?>
<!-- Created with Inkscape (http://www.inkscape.org/) -->

<svg
   xmlns:dc="http://purl.org/dc/elements/1.1/"
   xmlns:cc="http://creativecommons.org/ns#"
   xmlns:rdf="http://www.w3.org/1999/02/22-rdf-syntax-ns#"
   xmlns:svg="http://www.w3.org/2000/svg"
   xmlns="http://www.w3.org/2000/svg"
   xmlns:sodipodi="http://sodipodi.sourceforge.net/DTD/sodipodi-0.dtd"
   xmlns:inkscape="http://www.inkscape.org/namespaces/inkscape"
   version="1.1"
   width="100%"
   height="100%"
   viewBox="0 -200 1000 1000"
   id="svg2"
   inkscape:version="0.48.0 r9654"
   sodipodi:docname="P.svg">
  <sodipodi:namedview
     pagecolor="#ffffff"
     bordercolor="#666666"
     borderopacity="1"
     objecttolerance="10"
     gridtolerance="10"
     guidetolerance="10"
     inkscape:pageopacity="0"
     inkscape:pageshadow="2"
     inkscape:window-width="1328"
     inkscape:window-height="792"
     id="namedview8"
     showgrid="false"
     inkscape:zoom="0.03275"
     inkscape:cx="6909.6532"
     inkscape:cy="-4934.7792"
     inkscape:window-x="31"
     inkscape:window-y="0"
     inkscape:window-maximized="0"
     inkscape:current-layer="svg2"
     showguides="true"
     inkscape:guide-bbox="true"
     inkscape:snap-midpoints="true">
    <inkscape:grid
       type="xygrid"
       id="grid3075"
       empspacing="10"
       visible="true"
       enabled="true"
       snapvisiblegridlinesonly="true" />
  </sodipodi:namedview>
  <metadata
     id="metadata12">
    <rdf:RDF>
      <cc:Work
         rdf:about="">
        <dc:format>image/svg+xml</dc:format>
        <dc:type
           rdf:resource="http://purl.org/dc/dcmitype/StillImage" />
        <dc:title></dc:title>
      </cc:Work>
    </rdf:RDF>
  </metadata>
  <defs
     id="defs10" />
  <path
     inkscape:export-ydpi="90"
     inkscape:export-xdpi="90"
     inkscape:export-filename="/Users/lgarron/Documents/Graphics/Fonts/Inception/GBexp/diff.png"
     sodipodi:nodetypes="ccccccsccccccccccccccccssccscccccccccccccccccccccccsssscccccccsssscccccssscccccccscccccccccsccsccccscccsccscccscccccccccccccsccc"
     inkscape:connector-curvature="0"
     id="path4175"
     d="m 412.75,93.9688 c -1.6503,0.01 -3.3115,0.035 -4.9688,0.062 C 215.2229,97.6948 44.775,235.6488 33.5625,433.2496 l 20.0313,0 C 64.7735,247.0619 225.2953,117.5103 408.1562,114.0308 c 1.5763,-0.029 3.1568,-0.055 4.7188,-0.062 198.4597,-1.1698 343.9687,163.7178 343.9688,340 0,67.4281 -19.9062,128.6238 -53.9063,180.125 l -9.5937,14.5312 13.0624,11.5 58,51.0312 -38.375,43.625 -7.8437,8.9688 -41.875,-36.5 0.1875,-0.1875 -25.4375,-22.4063 0,-0.031 -25.1875,-22.1562 -50.25,-42.625 -48.8125,-44.5626 -104.7531,-92.0906 -42.9344,48.6844 104.7188,92.1875 c -24.6901,8.4209 -51.7287,12.9375 -80.3126,12.9375 -135.3985,0 -219.0634,-88.3724 -215.4687,-209.3125 3.5829,-120.5461 95.0304,-196.2585 222.6875,-198.6875 1.9505,-0.037 3.881,-0.047 5.8125,-0.031 121.6813,0.9353 205.2812,104.1494 205.2813,205 0,32.1238 -6.9678,61.7343 -19.5626,87.8437 l -120.7187,-106.2813 -42.9719,48.4323 120.7213,106.6302 39.125,35.125 16.7563,14.75 c 46.7733,-51.1183 71.1151,-122.6519 71.65,-186.5 -3e-4,-136.6398 -111.7138,-269.5009 -269.7813,-270.7156 l -1.7813,0 0,20.7156 c 0.5446,0 1.0784,0 1.625,0 146.9679,1.1296 249.9371,124.2808 249.9376,250 -3e-4,38.6314 -8.4749,75.1557 -24.0313,107.4062 -10.2335,16.4526 -17.7258,32.891 -31.1563,49.3438 l -39.125,-35.125 -105.7614,-92.9885 16.574,-18.8553 105.7187,93.0625 19.7813,17.4375 11.4374,-23.75 c 13.9108,-28.8388 21.5618,-61.5154 21.5626,-96.5312 -3e-4,-111.9033 -92.2054,-223.9784 -225.125,-225 -3.0017,0.5845 -9.5689,0.3228 -20.1563,0.8124 -61.9365,3.6986 -116.4659,23.9482 -156.8437,59.2188 -43.3739,37.8873 -69.7184,92.8943 -71.6563,158.0938 -1.9385,65.2204 19.9929,123.475 61.5,164.7812 41.5071,41.3062 101.9182,65.125 173.9687,65.125 30.6905,0 59.2212,-5.7985 76.5237,-10.6603 15.7957,-4.2128 30.7325,-14.3893 36.5041,-19.7948 l -19.4965,-17.4824 -89.7187,-78.9687 16.9916,-18.4437 89.2584,78.6311 45.2172,41.206 c -18.2835,15.3102 -37.9832,26.6889 -60.436,35.169 -29.96,11.3155 -61.5193,15.3438 -94.8438,15.3438 -77.4894,0 -144.9422,-25.9813 -191.5937,-72.4062 -46.6515,-46.4257 -70.9588,-112.0916 -68.8437,-183.25 2.1207,-71.3577 31.681,-133.816 80.1874,-176.1876 59.6001,-41.6933 105.8919,-61.6207 167,-65.5 l 0,-21.8292 c -5.8331,0.222 -8.1658,0.01 -18.5624,0.798 -52.7727,5.6658 -123.3983,38.8763 -161.5938,71.4688 -52.8089,46.1292 -84.7568,114.129 -87.0312,190.6562 -2.2612,76.0722 23.8768,147.4048 74.75,198.0312 50.8392,50.5933 123.7275,78.2188 205.6874,78.2188 35.4324,0 69.6167,-5.5959 101.3126,-16.4062 27.4831,-9.9213 47.5634,-20.7536 64.0312,-31.8126 l 8.2781,-5.3208 18.7865,16.1792 -22.3458,13.7354 c -46.1689,28.9184 -100.7293,46.3126 -158.3126,48.4062 l 0,20 c 61.4101,-2.1017 119.6281,-20.5832 168.9376,-51.4687 l 28.4374,-17.8125 25.1876,22.1562 48.3124,42.5313 1.2813,-1.4687 18.7813,16.5624 -17.8126,20.2188 -67.0937,-59.0625 -11.1875,-9.875 -12.6562,7.9375 c -56.369,35.3075 -123.4403,55.5 -193.9376,55.5 -195.6713,0 -348.1104,-148.9249 -350.5,-333.75 l -20.0312,0 c 2.4247,195.7422 164.5448,353.75 370.5312,353.75 74.3168,0 145.0542,-21.2887 204.5626,-58.5625 l 82.0937,72.2813 102.4375,-116.3438 -73,-64.25 c 36.0478,-54.6026 57.2187,-119.7739 57.2188,-191.1562 0,-187.2822 -154.5102,-361.2355 -364.0938,-360 z m 0.2812,45 c -1.4515,0.01 -2.9315,0.037 -4.4062,0.062 -174.4073,3.3187 -325.2431,127.4584 -330.5312,305.375 -5.1526,173.3499 131.0651,315.7037 312.1874,322.3438 l 0,-20.0312 C 219.5754,740.1585 93.2682,607.3261 98.0938,444.9996 103.0544,278.0956 243.8586,162.1737 409,159.0308 c 1.4602,-0.028 2.8429,-0.056 4.125,-0.062 l 0.031,0 c 173.4045,-1.0223 298.6868,143.4817 298.6876,295 0,58.5712 -17.0485,110.7799 -46.4688,155.3437 l 0,0.031 -21.5625,32.6874 -11.025,13.3386 14.4937,12.6614 29.4063,25.875 24.1875,21.2813 -0.1562,0.1875 15.0624,13.125 13.3126,-15.0938 -39.1876,-34.5 -29.4062,-25.875 21.5625,-32.6874 c 31.4405,-47.6239 49.7811,-103.8902 49.7813,-166.375 -3e-4,-162.5319 -134.2578,-316.088 -318.8126,-315 z"
     style="font-size:medium;font-style:normal;font-variant:normal;font-weight:normal;font-stretch:normal;text-indent:0;text-align:start;text-decoration:none;line-height:125%;letter-spacing:0;word-spacing:0;text-transform:none;direction:ltr;block-progression:tb;writing-mode:lr-tb;text-anchor:start;baseline-shift:baseline;color:#000000;fill:#00ff00;fill-opacity:1;stroke:none;stroke-width:155;marker:none;visibility:visible;display:inline;overflow:visible;enable-background:accumulate;font-family:Sans;-inkscape-font-specification:Sans" />
</svg>
