<?xml version="1.0" encoding="UTF-8" standalone="no"?>
<!-- Created with Inkscape (http://www.inkscape.org/) -->

<svg
   xmlns:dc="http://purl.org/dc/elements/1.1/"
   xmlns:cc="http://creativecommons.org/ns#"
   xmlns:rdf="http://www.w3.org/1999/02/22-rdf-syntax-ns#"
   xmlns:svg="http://www.w3.org/2000/svg"
   xmlns="http://www.w3.org/2000/svg"
   xmlns:sodipodi="http://sodipodi.sourceforge.net/DTD/sodipodi-0.dtd"
   xmlns:inkscape="http://www.inkscape.org/namespaces/inkscape"
   version="1.1"
   width="100%"
   height="100%"
   viewBox="0 -200 1000 1000"
   id="svg2"
   inkscape:version="0.48.0 r9654"
   sodipodi:docname="R.svg">
  <sodipodi:namedview
     pagecolor="#ffffff"
     bordercolor="#666666"
     borderopacity="1"
     objecttolerance="10"
     gridtolerance="10"
     guidetolerance="10"
     inkscape:pageopacity="0"
     inkscape:pageshadow="2"
     inkscape:window-width="1328"
     inkscape:window-height="792"
     id="namedview8"
     showgrid="false"
     inkscape:zoom="0.03275"
     inkscape:cx="6909.6532"
     inkscape:cy="-4934.7792"
     inkscape:window-x="31"
     inkscape:window-y="0"
     inkscape:window-maximized="0"
     inkscape:current-layer="svg2"
     showguides="true"
     inkscape:guide-bbox="true"
     inkscape:snap-midpoints="true">
    <inkscape:grid
       type="xygrid"
       id="grid3075"
       empspacing="10"
       visible="true"
       enabled="true"
       snapvisiblegridlinesonly="true" />
  </sodipodi:namedview>
  <metadata
     id="metadata12">
    <rdf:RDF>
      <cc:Work
         rdf:about="">
        <dc:format>image/svg+xml</dc:format>
        <dc:type
           rdf:resource="http://purl.org/dc/dcmitype/StillImage" />
        <dc:title></dc:title>
      </cc:Work>
    </rdf:RDF>
  </metadata>
  <defs
     id="defs10" />
  <path
     inkscape:export-ydpi="90"
     inkscape:export-xdpi="90"
     inkscape:export-filename="/Users/lgarron/Documents/Graphics/Fonts/Inception/GBexp/diff.png"
     sodipodi:nodetypes="ssssscccsscccsssccssscccccccccsccssssscccsscccccccccscccsccsscsssssscccsssssssscscccsscssccsscccssssccsccccccssccccscccccccssccccsscc"
     inkscape:connector-curvature="0"
     id="path4077"
     d="M 314.4375,94.625 C 250.8315,94.9873 188.2502,109.1114 135,142.4375 81.7498,175.7636 37.0001,236.9414 37,309.5312 c 0,65.2338 33.4522,128.4203 84.4375,164 50.9853,35.5799 112.942,49.4558 182.125,52.75 53.7153,2.5579 100.4337,13.1226 123.875,25.5626 23.4413,12.4394 24.1429,12.0699 23.7187,32.8437 -0.5262,25.7867 -7.0703,35.5278 -25.6562,48.2813 -18.5859,12.7529 -53.5313,23.6134 -99.625,22.75 -43.4999,-0.815 -95.6207,-15.222 -137.7812,-33.25 -42.1608,-18.0286 -79.7984,-47.3516 -74.4063,-41.625 l -80.5334,75.9396 c 10.5643,11.184 20.0833,17.5901 35.2521,28.4978 19.7673,13.0079 43.6854,24.3387 76.4376,38.3438 52.0067,22.2388 114.3126,40.8513 178.9687,42.0625 63.4391,1.1884 119.6542,-11.6359 163.9063,-42 37.608,-25.8055 65.9894,-70.6446 72.1562,-120.0313 l -20.1875,0 c -6.1664,42.4529 -31.3258,81.6047 -63.2813,103.5313 -39.9025,27.3798 -91.6947,39.6338 -152.2187,38.5 C 263.1271,744.5437 203.125,726.8045 152.7188,705.25 136.2206,698.1953 122.4139,691.921 110.3125,685.875 89.9945,674.6772 75.8084,666.0341 63.1541,655.5563 l 53.2209,-49.7751 c 2.2122,1.4387 3.2922,2.1802 5.9688,3.875 14.4615,9.1576 35.1684,21.4774 57.875,31.1876 44.0976,18.8563 97.6669,33.9828 145.2812,34.875 49.4229,0.9255 87.451,-9.8774 111.3125,-26.25 10.3488,-7.1014 19.6,-14.924 25.7813,-26.0626 6.1809,-11.1382 8.266,-23.7799 8.5624,-38.3124 0.1087,-5.3048 0.2552,-9.7234 -0.375,-14.9376 -0.6301,-5.2138 -2.6613,-11.8434 -6.5624,-17.0312 C 456.4163,542.7494 448.3877,540.33 436.8125,534.1875 407.7937,518.7879 360.2785,508.9686 304.5,506.3125 237.4155,503.1182 179.6259,489.7499 132.875,457.125 87.6359,425.5552 57,367.9277 57,309.5312 c 1e-4,-64.3702 40.4339,-119.965 88.625,-150.125 49.431,-30.9358 108.2174,-44.4353 168.9375,-44.7812 107.6319,-0.613 189.1487,40.4758 245.875,82.7812 6.0708,4.7581 11.6317,8.7094 16.0615,11.8577 l 12.4385,-15.2327 C 529.6753,145.9069 438.0434,93.921 314.4375,94.625 z m 0.25,45 c -57.1128,0.3253 -111.1556,13.0203 -155.8125,40.9688 l -0.3438,0.2187 C 119.94,205.0996 87.2723,248.4311 82.5938,297.5 l 20.1874,-0.5312 c 4.9658,-40.6668 33.2409,-78.3465 66.4063,-99.2188 l 0.031,-0.031 0.062,-0.031 0.2188,-0.125 0.125,-0.094 c 40.7913,-25.4874 91.0246,-37.5353 145.1875,-37.8438 67.5147,-0.3846 122.906,17.4096 167.7187,41.2812 12.7526,7.2839 34.5562,19.921 49.7428,31.3264 l -44.2742,54.3927 c -42.5245,-31.4468 -95.645,-57.4396 -172.8125,-57 -42.8235,0.2439 -82.4375,10.8999 -108.5625,27.25 -11.5095,7.2029 -20.1159,13.5042 -26.4688,22.8125 -6.3526,9.3083 -8.1562,20.4797 -8.1562,29.8437 0,12.1114 0.3761,22.0827 5.5625,32.0938 5.1864,10.0111 13.0943,15.5615 21.1563,21.1875 21.1381,14.7515 57.5634,26.036 111.2812,28.5937 65.1957,3.1046 126.9837,12.6411 180.7188,41.1563 51.3526,27.2512 96.7771,87.7368 95.4062,154.875 -1.3134,64.3182 -35.6732,123.5124 -84.25,156.8437 -49.6595,34.0749 -111.4258,47.6634 -178.5312,46.4063 -69.0878,-1.2942 -134.3575,-20.9908 -188.3126,-44.0625 -46.4318,-19.8551 -78.2015,-35.6503 -105.1562,-59.375 -9.9982,-7.82 -9.7584,-8.8516 -14.5563,-13.6937 L 0.8429,687.0943 c 32.9165,34.9579 70.7995,54.1681 126.3124,77.9062 55.513,23.7381 123.1801,44.3269 195.8126,45.6875 70.0383,1.312 136.233,-12.8629 190.2187,-49.9063 53.9857,-37.0429 91.4857,-101.8391 92.9375,-172.9374 1.5541,-76.1114 -48.3486,-142.3271 -106.0312,-172.9376 -57.6834,-30.6102 -122.6425,-40.3014 -189.1563,-43.4687 -51.0461,-2.4307 -85.4497,-14.3318 -100.7813,-25.0313 -15.331,-10.6989 -18.1562,-14.3224 -18.1562,-36.875 0,-15.1961 4.0254,-22.4048 25.25,-35.6874 21.2246,-13.2832 58.8043,-23.9952 98.0625,-24.2188 82.1223,-0.4678 132.334,29.3671 175.9063,64.75 l 69.8676,-86.211 C 544.9151,216.5484 533.5777,207.9489 515.6241,196.9067 464.7818,165.2664 398.2279,139.1497 314.6866,139.6255 z m 0.25,45 c -50.2042,0.286 -95.9647,11.4241 -132.1875,34.0938 -12.9831,8.1251 -27.8193,18.0663 -39.7812,35.5937 C 129.7967,273.6127 127,294.7559 127,309.5312 c 0,13.1392 0.027,32.3233 10.625,52.7813 10.7582,20.7661 27.1418,31.6823 35.3438,37.4063 32.7092,22.8262 75.8288,33.8119 134.9062,36.625 62.167,2.9602 116.9674,12.2044 161.75,35.9687 34.5568,18.3383 68.3797,62.6247 71.3125,106.3437 l 20.0625,0 c -2.6837,-52.8423 -40.711,-102.0887 -82,-124 C 430.1998,428.7599 372.3605,419.4011 308.8125,416.375 251.7551,413.6581 212.8033,403.1295 184.4062,383.3125 175.8493,377.3409 163.7662,369.3221 155.375,353.125 146.984,336.9279 147,322.6865 147,309.5312 c 0,-11.5713 2.7807,-29.6968 12.5,-43.9374 9.7193,-14.2413 21.2441,-22.0016 33.875,-29.9063 32.2506,-20.1837 74.4074,-30.7932 121.6875,-31.0625 71.1194,-0.4051 125.3256,21.1679 168,48.4062 L 495.25,238 c -5.3607,-3.9416 -8.7484,-6.2621 -16.8125,-11 -42.8245,-24.3524 -96.5198,-42.7565 -163.5,-42.375 z m -212.25,137.3438 -20.0937,0.5624 c 4.1925,45.4801 29.8431,89.8434 64.5937,114.0938 41.4579,28.9312 94.0698,41.6489 158.5313,44.7188 58.3569,2.7789 106.8217,11.6504 142.8124,30.75 11.3938,6.046 21.9477,7.7289 35.6876,26 6.8693,9.1355 10.4225,21.183 11.375,29.0624 0.9519,7.8801 0.6737,12.9931 0.5624,18.4376 -0.3382,16.5819 -2.8421,33.9737 -11.7187,49.9687 -8.8766,15.995 -21.8,26.4932 -33.4687,34.5 -30.4563,20.8977 -72.3531,31.6597 -125.9376,30.6563 -52.7572,-0.9886 -108.1051,-16.9831 -154.625,-36.875 -19.5515,-8.3609 -37.0189,-18.1587 -50.9687,-26.625 l -15.3885,14.576 c 18.6953,10.4627 40.4096,22.6327 58.4822,30.424 48.229,20.6228 105.5896,37.4405 162.125,38.5 56.4563,1.0573 102.7549,-10.2297 137.625,-34.1563 12.7135,-8.7235 28.5848,-21.3308 39.6563,-41.2813 11.0871,-19.9781 13.8452,-40.9724 14.2187,-59.2812 0.1029,-5.0177 0.4129,-11.8857 -0.7187,-21.25 -1.3721,-11.3507 -5.2634,-25.4488 -15.2187,-38.6875 -16.3425,-21.7317 -34.0788,-27.2558 -42.3126,-31.625 -40.2924,-21.3823 -91.3977,-30.2124 -151.25,-33.0625 -62.3558,-2.9693 -110.8295,-15.1957 -148.0312,-41.1562 -28.8276,-20.1172 -51.7617,-59.4471 -55.9375,-98.25 z"
     style="font-size:medium;font-style:normal;font-variant:normal;font-weight:normal;font-stretch:normal;text-indent:0;text-align:start;text-decoration:none;line-height:125%;letter-spacing:0;word-spacing:0;text-transform:none;direction:ltr;block-progression:tb;writing-mode:lr-tb;text-anchor:start;baseline-shift:baseline;color:#000000;fill:#00ff00;fill-opacity:1;stroke:none;stroke-width:155;marker:none;visibility:visible;display:inline;overflow:visible;enable-background:accumulate;font-family:Sans;-inkscape-font-specification:Sans" />
</svg>
